<svg xmlns="http://www.w3.org/2000/svg" viewBox="0 0 320 80" fill="none">
  <!-- tooth mark -->
  <g transform="translate(8 14)" fill="#0A8F82">
    <path d="M26 4 C 18 4, 12 10, 12 18 C 12 26, 14 32, 16 38 C 17 42, 20 50, 22 50 C 24 50, 24 42, 26 38 C 27 36, 27 36, 28 38 C 30 42, 30 50, 32 50 C 34 50, 37 42, 38 38 C 40 32, 42 26, 42 18 C 42 10, 36 4, 28 4 Z" opacity="0.95"/>
    <path d="M22 14 C 24 12, 28 12, 30 14" stroke="white" stroke-width="2" fill="none" stroke-linecap="round"/>
  </g>
  <!-- BORDER CITY -->
  <text x="62" y="34" font-family="Inter, sans-serif" font-weight="800" font-size="20" letter-spacing="-0.02em" fill="#0A2540">Border City</text>
  <!-- DENTAL CENTRE -->
  <text x="62" y="58" font-family="Inter, sans-serif" font-weight="500" font-size="11" letter-spacing="0.32em" fill="#0A8F82">DENTAL CENTRE</text>
</svg>
