<svg xmlns="http://www.w3.org/2000/svg" viewBox="0 0 340 80" fill="none">
  <!-- gear/wrench mark -->
  <g transform="translate(8 18)" fill="#1A1A2E">
    <path d="M22 4 L 26 4 L 26 10 L 30 11 L 33 8 L 36 11 L 33 14 L 34 18 L 40 18 L 40 22 L 34 22 L 33 26 L 36 29 L 33 32 L 30 29 L 26 30 L 26 36 L 22 36 L 22 30 L 18 29 L 15 32 L 12 29 L 15 26 L 14 22 L 8 22 L 8 18 L 14 18 L 15 14 L 12 11 L 15 8 L 18 11 L 22 10 Z"/>
    <circle cx="24" cy="20" r="5" fill="#FAFAF7"/>
  </g>
  <!-- LLOYD HI-QUALITY -->
  <text x="58" y="32" font-family="Inter, sans-serif" font-weight="900" font-size="18" letter-spacing="0.02em" fill="#1A1A2E">LLOYD HI-QUALITY</text>
  <!-- AUTO REPAIR -->
  <text x="58" y="56" font-family="Inter, sans-serif" font-weight="600" font-size="11" letter-spacing="0.4em" fill="#C8362F">AUTO  ·  REPAIR</text>
</svg>
